<svg width="20" height="20" viewBox="0 0 20 20" fill="none" xmlns="http://www.w3.org/2000/svg">
<path d="M10 5.83333V17.5M10 5.83333C10 3.99238 8.50764 2.5 6.66669 2.5H2.50002C2.03978 2.5 1.66669 2.8731 1.66669 3.33333V14.1667C1.66669 14.6269 2.03978 15 2.50002 15M10 5.83333C10 3.99238 11.4924 2.5 13.3334 2.5H17.5C17.9603 2.5 18.3334 2.8731 18.3334 3.33333V14.1667C18.3334 14.6269 17.9603 15 17.5 15H12.5C11.1193 15 10 16.1193 10 17.5M10 5.83333L7.50002 15C8.88073 15 10 16.1193 10 17.5" stroke="white" stroke-width="1.66667" stroke-linecap="round" stroke-linejoin="round"/>
</svg>
